<svg xmlns="http://www.w3.org/2000/svg" width="15.334" height="10.782" viewBox="0 0 15.334 10.782">
  <g id="mail" transform="translate(0 -76)">
    <g id="Group_792" data-name="Group 792" transform="translate(10.548 76.77)">
      <g id="Group_791" data-name="Group 791" transform="translate(0 0)">
        <path id="Path_1989" data-name="Path 1989" d="M356.861,101.721l-4.65,4.621,4.65,4.621a1.332,1.332,0,0,0,.135-.577V102.3A1.332,1.332,0,0,0,356.861,101.721Z" transform="translate(-352.211 -101.721)"/>
      </g>
    </g>
    <g id="Group_794" data-name="Group 794" transform="translate(0.77 76)">
      <g id="Group_793" data-name="Group 793" transform="translate(0 0)">
        <path id="Path_1990" data-name="Path 1990" d="M38.937,76H26.3a1.332,1.332,0,0,0-.577.135l5.944,5.914a1.349,1.349,0,0,0,1.906,0l5.944-5.914A1.332,1.332,0,0,0,38.937,76Z" transform="translate(-25.721 -76)"/>
      </g>
    </g>
    <g id="Group_796" data-name="Group 796" transform="translate(0 76.77)">
      <g id="Group_795" data-name="Group 795" transform="translate(0 0)">
        <path id="Path_1991" data-name="Path 1991" d="M.135,101.721A1.332,1.332,0,0,0,0,102.3v8.086a1.332,1.332,0,0,0,.135.577l4.65-4.621Z" transform="translate(0 -101.721)"/>
      </g>
    </g>
    <g id="Group_798" data-name="Group 798" transform="translate(0.77 82.026)">
      <g id="Group_797" data-name="Group 797">
        <path id="Path_1992" data-name="Path 1992" d="M34.864,277.211l-.658.658a2.249,2.249,0,0,1-3.176,0l-.658-.658-4.65,4.621a1.332,1.332,0,0,0,.577.135H38.937a1.332,1.332,0,0,0,.577-.135Z" transform="translate(-25.721 -277.211)"/>
      </g>
    </g>
  </g>
</svg>
