<svg xmlns="http://www.w3.org/2000/svg" width="16.346" height="16.38" viewBox="0 0 16.346 16.38">
  <g id="phone-call" transform="translate(-0.539)">
    <g id="Group_790" data-name="Group 790" transform="translate(0.539 0)">
      <path id="Path_1988" data-name="Path 1988" d="M16.456,12.021,14.17,9.735a1.52,1.52,0,0,0-2.531.571,1.556,1.556,0,0,1-1.8.98A7.049,7.049,0,0,1,5.6,7.041a1.48,1.48,0,0,1,.98-1.8,1.52,1.52,0,0,0,.571-2.531L4.863.429a1.631,1.631,0,0,0-2.2,0L1.108,1.98c-1.551,1.633.163,5.96,4,9.8s8.164,5.633,9.8,4l1.551-1.551A1.63,1.63,0,0,0,16.456,12.021Z" transform="translate(-0.539 0)"/>
    </g>
  </g>
</svg>
